<svg width="100" height="124" viewBox="0 0 100 124" fill="none" xmlns="http://www.w3.org/2000/svg">
<path d="M34.9587 22.414V35.0192C34.9587 35.1236 34.9717 35.241 34.9978 35.3715H36.9551V40.4214H35.6633L34.0191 38.6206H33.9017C32.91 39.8211 31.6443 40.4214 30.1045 40.4214H8.574C6.77327 40.4214 5.19437 39.8472 3.83729 38.6989C2.01046 37.1853 1.09705 35.2279 1.09705 32.827V27.6988L4.15046 25.2326H7.12559V32.827C7.12559 33.636 7.41266 34.2884 7.98681 34.7843C8.43047 35.1757 8.93937 35.3715 9.51352 35.3715H28.1472C28.4082 35.3715 28.6169 35.2801 28.7735 35.0975C28.8779 34.9409 28.9301 34.7712 28.9301 34.5886V22.414H34.9587ZM18.0474 42.2221C18.9086 42.2221 19.6263 42.5222 20.2005 43.1225C20.8007 43.7227 21.1008 44.4534 21.1008 45.3147C21.1008 46.1498 20.8007 46.8675 20.2005 47.4677C19.6263 48.0679 18.9086 48.3681 18.0474 48.3681C17.2123 48.3681 16.4946 48.0679 15.8944 47.4677C15.2941 46.8675 14.994 46.1498 14.994 45.3147C14.994 44.4534 15.2941 43.7227 15.8944 43.1225C16.4946 42.5222 17.2123 42.2221 18.0474 42.2221Z" fill="#FFC806"/>
<path d="M49.7343 12.3926V35.0192C49.7343 35.1236 49.7473 35.241 49.7734 35.3715H51.6916V40.4214H50.4389L48.7556 38.6206H48.6773C47.6856 39.8211 46.4068 40.4214 44.841 40.4214H36.6594V35.3715H43.1185C43.2751 35.3715 43.3926 35.3323 43.4709 35.254C43.6274 35.1496 43.7057 35.0061 43.7057 34.8234V12.3926H49.7343Z" fill="#FFC806"/>
<path d="M64.4906 12.3926L64.4515 27.229C67.7659 23.6798 71.6936 21.9051 76.2345 21.9051C79.4967 21.9051 82.1978 22.8707 84.3378 24.802C86.3473 26.6027 87.3521 28.8862 87.3521 31.6526V35.5672C87.3521 37.107 86.7519 38.3727 85.5514 39.3644C84.6379 40.069 83.6201 40.4214 82.4979 40.4214H51.4157V35.3715H58.4621V12.3926H64.4906ZM81.3236 32.3181C81.3236 31.222 81.0104 30.2172 80.384 29.3038C79.2358 27.8162 77.6047 27.0724 75.4908 27.0724C73.6378 27.0724 71.824 27.6857 70.0494 28.9123C67.8311 30.4521 65.9651 32.6051 64.4515 35.3715H80.7364C81.1278 35.3715 81.3236 35.1888 81.3236 34.8234V32.3181Z" fill="#FFC806"/>
<path d="M92.7837 6.91207C92.4444 6.15524 92.2748 5.48975 92.2748 4.9156C92.2748 3.74121 92.614 2.78865 93.2926 2.05792C93.9972 1.32719 94.9106 0.961823 96.0328 0.961823C96.7635 0.961823 97.5334 1.09231 98.3424 1.35329V3.81951C97.7161 3.63682 97.2333 3.54548 96.894 3.54548C95.9023 3.54548 95.4065 4.10658 95.4065 5.22877C95.4065 5.69853 95.4978 6.07695 95.6805 6.36402C95.9676 6.72938 96.3721 6.91207 96.894 6.91207H99.6343V8.12561L98.5773 9.41744H91.3744V6.91207H92.7837ZM98.225 12.3926V38.9338L95.1716 41.4H92.1965V12.3926H98.225Z" fill="#FFC806"/>
<path d="M15.9963 57.8265C19.9102 57.8265 23.0273 59.2093 25.3475 61.9748C27.3396 64.3888 28.3357 67.4121 28.3357 71.0448C28.3357 75.2399 27.0466 78.5679 24.4686 81.0288C22.2187 83.185 19.3946 84.263 15.9963 84.263C12.012 84.263 8.84807 82.8803 6.50441 80.1148C4.48886 77.7242 3.48108 74.7009 3.48108 71.0448C3.48108 66.8496 4.72322 63.5685 7.20751 61.2014C9.59805 58.9514 12.5276 57.8265 15.9963 57.8265ZM15.9611 63.2404C14.0627 63.2404 12.5862 64.0372 11.5316 65.6309C10.6175 66.9902 10.1605 68.7831 10.1605 71.0096C10.1605 73.6111 10.7464 75.6149 11.9183 77.0211C12.9495 78.2398 14.3088 78.8492 15.9963 78.8492C17.7774 78.8492 19.1719 78.1578 20.1797 76.775C21.1875 75.3688 21.6914 73.4119 21.6914 70.9041C21.6914 68.3495 21.1054 66.3926 19.9336 65.0333C18.9258 63.838 17.6017 63.2404 15.9611 63.2404Z" fill="white"/>
<path d="M42.6558 65.3848V69.3222H38.3318V76.8453C38.3318 78.5328 39.0935 79.3765 40.6168 79.3765C41.5074 79.3765 42.2105 79.2007 42.7261 78.8492L43.7808 83.1381C42.6324 83.6303 40.9567 83.8763 38.7536 83.8763C36.035 83.8763 34.2186 83.2904 33.3046 82.1186C32.9062 81.603 32.6484 81.0405 32.5312 80.4311C32.414 79.8218 32.3554 78.814 32.3554 77.4078V69.3222H29.2969V65.3848H32.3554V61.5178L38.3318 58.389V65.3848H42.6558Z" fill="white"/>
<path d="M50.8461 58.4593V83.6303H44.8698V58.4593H50.8461Z" fill="white"/>
<path d="M63.5761 84.1224C60.5059 84.1224 58.0684 83.1146 56.2638 81.0991C54.6936 79.3413 53.9084 77.1383 53.9084 74.49C53.9084 71.4432 54.9162 69.0175 56.9318 67.2129C58.6895 65.6661 60.8926 64.8926 63.5409 64.8926C66.6345 64.8926 69.0837 65.8887 70.8883 67.8808C72.4351 69.5917 73.2085 71.783 73.2085 74.4548C73.2085 77.525 72.2008 79.9624 70.1852 81.767C68.4275 83.3373 66.2244 84.1224 63.5761 84.1224ZM63.5058 69.2519C62.3808 69.2519 61.5136 69.7089 60.9043 70.6229C60.2949 71.5369 59.9903 72.826 59.9903 74.49C59.9903 78.0055 61.1855 79.7632 63.5761 79.7632C65.9666 79.7632 67.1619 77.9937 67.1619 74.4548C67.1619 70.9862 65.9432 69.2519 63.5058 69.2519Z" fill="white"/>
<path d="M82.2933 58.4593V67.4941C83.723 65.7129 85.5042 64.8223 87.6369 64.8223C90.1446 64.8223 92.1133 65.8067 93.543 67.7754C94.7851 69.4628 95.4062 71.6307 95.4062 74.279C95.4062 77.4664 94.5624 79.9624 92.875 81.767C91.3985 83.3373 89.5118 84.1224 87.2151 84.1224C85.1058 84.1224 83.3949 83.2435 82.0824 81.4858V83.6303H76.317V58.4593H82.2933ZM85.7385 69.5331C84.637 69.5331 83.7581 69.9667 83.1019 70.8338C82.4457 71.701 82.1176 72.8611 82.1176 74.3142C82.1176 75.8376 82.434 77.0445 83.0668 77.9351C83.723 78.8023 84.6253 79.2359 85.7737 79.2359C86.8752 79.2359 87.7424 78.8023 88.3752 77.9351C89.0314 77.0445 89.3595 75.8376 89.3595 74.3142C89.3595 72.8611 89.0314 71.701 88.3752 70.8338C87.7189 69.9667 86.8401 69.5331 85.7385 69.5331Z" fill="white"/>
<path d="M11.9135 110.063C12.1835 110.063 12.4135 110.158 12.6035 110.348C12.7935 110.538 12.8885 110.768 12.8885 111.038C12.8885 111.298 12.7935 111.523 12.6035 111.713C12.4135 111.903 12.1835 111.998 11.9135 111.998C11.6535 111.998 11.4285 111.903 11.2385 111.713C11.0485 111.523 10.9535 111.298 10.9535 111.038C10.9535 110.768 11.0485 110.538 11.2385 110.348C11.4285 110.158 11.6535 110.063 11.9135 110.063ZM14.2085 110.063C14.4785 110.063 14.7035 110.158 14.8835 110.348C15.0735 110.538 15.1685 110.768 15.1685 111.038C15.1685 111.308 15.0735 111.538 14.8835 111.728C14.7035 111.908 14.4785 111.998 14.2085 111.998C13.9385 111.998 13.7085 111.903 13.5185 111.713C13.3285 111.523 13.2335 111.298 13.2335 111.038C13.2335 110.768 13.3285 110.538 13.5185 110.348C13.7085 110.158 13.9385 110.063 14.2085 110.063ZM12.9485 120.263C11.8585 120.263 10.9885 119.873 10.3385 119.093C9.81846 118.443 9.55846 117.603 9.55846 116.573C9.55846 115.633 9.85846 114.838 10.4585 114.188C11.1285 113.518 11.9885 113.183 13.0385 113.183C13.8085 113.183 14.4635 113.368 15.0035 113.738C15.7235 114.258 16.0835 114.998 16.0835 115.958V118.733H16.5635V120.263H16.0685C15.9985 121.383 15.5835 122.258 14.8235 122.888C14.0735 123.528 13.0735 123.848 11.8235 123.848H10.3385C8.95846 123.848 7.88846 123.463 7.12846 122.693C6.42846 122.013 6.07846 121.083 6.07846 119.903V118.238L7.00846 117.488H7.90846V119.738C7.90846 120.678 8.14346 121.338 8.61346 121.718C9.09346 122.108 9.91346 122.303 11.0735 122.303C12.0835 122.303 12.8085 122.178 13.2485 121.928C13.8085 121.608 14.1285 121.053 14.2085 120.263H12.9485ZM14.2535 115.958C14.2535 115.568 14.1185 115.253 13.8485 115.013C13.6185 114.813 13.3485 114.713 13.0385 114.713C12.5585 114.713 12.1735 114.873 11.8835 115.193C11.5435 115.533 11.3735 116.048 11.3735 116.738C11.3735 117.298 11.5185 117.753 11.8085 118.103C12.1285 118.523 12.5985 118.733 13.2185 118.733H14.2535V115.958ZM18.9735 111.128C18.8135 110.858 18.7335 110.573 18.7335 110.273C18.7335 109.843 18.8585 109.503 19.1085 109.253C19.3585 108.993 19.6935 108.863 20.1135 108.863C20.3835 108.863 20.6435 108.903 20.8935 108.983V109.778C20.6535 109.718 20.4685 109.688 20.3385 109.688C20.1485 109.688 19.9885 109.758 19.8585 109.898C19.7385 110.028 19.6785 110.198 19.6785 110.408C19.6785 110.598 19.7335 110.753 19.8435 110.873C19.9535 111.043 20.1335 111.128 20.3835 111.128H21.3885V111.503L21.0435 111.938H18.3885V111.128H18.9735ZM20.9685 113.363V118.613C20.9685 119.003 20.8385 119.363 20.5785 119.693C20.2485 120.073 19.8385 120.263 19.3485 120.263H16.4535V118.733H18.7635C18.8735 118.733 18.9685 118.693 19.0485 118.613C19.1185 118.543 19.1535 118.458 19.1535 118.358V113.363H20.9685ZM24.8713 109.523V118.358C24.8713 118.458 24.9013 118.538 24.9613 118.598C25.0213 118.688 25.1163 118.733 25.2463 118.733H25.6363V120.263H24.6613C24.2513 120.263 23.8913 120.118 23.5813 119.828C23.2213 119.498 23.0413 119.093 23.0413 118.613V109.523H24.8713ZM41.4506 113.363V118.268V118.733H42.2156V120.263H41.6306L41.1356 119.648H41.1056C40.7656 120.058 40.3406 120.263 39.8306 120.263H36.6206L36.1256 119.648H36.0806C35.7506 120.058 35.3306 120.263 34.8206 120.263H31.5956L31.1006 119.648H31.0556C30.7256 120.058 30.3056 120.263 29.7956 120.263H25.5356V118.733H29.2106C29.4606 118.733 29.5856 118.608 29.5856 118.358V115.088H31.4156V118.268C31.4156 118.478 31.4106 118.633 31.4006 118.733H34.2356C34.4856 118.733 34.6106 118.608 34.6106 118.358V114.218H36.4406V118.223C36.4406 118.283 36.4356 118.373 36.4256 118.493C36.4256 118.603 36.4256 118.683 36.4256 118.733H39.2456C39.4956 118.733 39.6206 118.608 39.6206 118.358V113.363H41.4506ZM46.6326 109.523V118.613C46.6326 119.033 46.4976 119.393 46.2276 119.693C45.9176 120.073 45.5126 120.263 45.0126 120.263H42.1176V118.733H44.4276C44.5376 118.733 44.6326 118.693 44.7126 118.613C44.7826 118.543 44.8176 118.458 44.8176 118.358V109.523H46.6326ZM50.5354 109.523V119.888L49.6054 120.638H48.7054V109.523H50.5354ZM61.1908 110.063C61.4608 110.063 61.6908 110.158 61.8808 110.348C62.0708 110.538 62.1658 110.768 62.1658 111.038C62.1658 111.298 62.0708 111.523 61.8808 111.713C61.6908 111.903 61.4608 111.998 61.1908 111.998C60.9308 111.998 60.7058 111.903 60.5158 111.713C60.3258 111.523 60.2308 111.298 60.2308 111.038C60.2308 110.768 60.3258 110.538 60.5158 110.348C60.7058 110.158 60.9308 110.063 61.1908 110.063ZM63.4858 110.063C63.7558 110.063 63.9808 110.158 64.1608 110.348C64.3508 110.538 64.4458 110.768 64.4458 111.038C64.4458 111.308 64.3508 111.538 64.1608 111.728C63.9808 111.908 63.7558 111.998 63.4858 111.998C63.2158 111.998 62.9858 111.903 62.7958 111.713C62.6058 111.523 62.5108 111.298 62.5108 111.038C62.5108 110.768 62.6058 110.538 62.7958 110.348C62.9858 110.158 63.2158 110.063 63.4858 110.063ZM62.2258 120.263C61.1358 120.263 60.2658 119.873 59.6158 119.093C59.0958 118.443 58.8358 117.603 58.8358 116.573C58.8358 115.633 59.1358 114.838 59.7358 114.188C60.4058 113.518 61.2658 113.183 62.3158 113.183C63.0858 113.183 63.7408 113.368 64.2808 113.738C65.0008 114.258 65.3608 114.998 65.3608 115.958V118.733H65.8408V120.263H65.3458C65.2758 121.383 64.8608 122.258 64.1008 122.888C63.3508 123.528 62.3508 123.848 61.1008 123.848H59.6158C58.2358 123.848 57.1658 123.463 56.4058 122.693C55.7058 122.013 55.3558 121.083 55.3558 119.903V118.238L56.2858 117.488H57.1858V119.738C57.1858 120.678 57.4208 121.338 57.8908 121.718C58.3708 122.108 59.1908 122.303 60.3508 122.303C61.3608 122.303 62.0858 122.178 62.5258 121.928C63.0858 121.608 63.4058 121.053 63.4858 120.263H62.2258ZM63.5308 115.958C63.5308 115.568 63.3958 115.253 63.1258 115.013C62.8958 114.813 62.6258 114.713 62.3158 114.713C61.8358 114.713 61.4508 114.873 61.1608 115.193C60.8208 115.533 60.6508 116.048 60.6508 116.738C60.6508 117.298 60.7958 117.753 61.0858 118.103C61.4058 118.523 61.8758 118.733 62.4958 118.733H63.5308V115.958ZM70.2459 113.363V118.508V118.733H71.0109V120.263H70.4859L69.9309 119.648H69.9009C69.5609 120.058 69.1359 120.263 68.6259 120.263H65.7309V118.733H67.9959C68.1359 118.733 68.2359 118.693 68.2959 118.613C68.3859 118.533 68.4309 118.433 68.4309 118.313V113.363H70.2459ZM66.9909 121.358C67.2609 121.358 67.4909 121.453 67.6809 121.643C67.8709 121.833 67.9659 122.063 67.9659 122.333C67.9659 122.603 67.8709 122.833 67.6809 123.023C67.4909 123.213 67.2609 123.308 66.9909 123.308C66.7209 123.308 66.4909 123.213 66.3009 123.023C66.1109 122.833 66.0159 122.603 66.0159 122.333C66.0159 122.063 66.1109 121.833 66.3009 121.643C66.4909 121.453 66.7209 121.358 66.9909 121.358ZM69.2709 121.358C69.5409 121.358 69.7709 121.453 69.9609 121.643C70.1509 121.833 70.2459 122.063 70.2459 122.333C70.2459 122.603 70.1509 122.833 69.9609 123.023C69.7709 123.213 69.5409 123.308 69.2709 123.308C69.0109 123.308 68.7859 123.213 68.5959 123.023C68.4059 122.833 68.3109 122.603 68.3109 122.333C68.3109 122.063 68.4059 121.833 68.5959 121.643C68.7859 121.453 69.0109 121.358 69.2709 121.358ZM75.4168 113.363V118.508V118.733H76.1818V120.263H75.6568L75.1018 119.648H75.0718C74.7318 120.058 74.3068 120.263 73.7968 120.263H70.9018V118.733H73.1668C73.3068 118.733 73.4068 118.693 73.4668 118.613C73.5568 118.533 73.6018 118.433 73.6018 118.313V113.363H75.4168ZM74.4568 121.358C74.7168 121.358 74.9418 121.453 75.1318 121.643C75.3218 121.833 75.4168 122.063 75.4168 122.333C75.4168 122.603 75.3218 122.833 75.1318 123.023C74.9418 123.213 74.7168 123.308 74.4568 123.308C74.1868 123.308 73.9568 123.213 73.7668 123.023C73.5768 122.833 73.4818 122.603 73.4818 122.333C73.4818 122.063 73.5768 121.833 73.7668 121.643C73.9568 121.453 74.1868 121.358 74.4568 121.358ZM80.5877 109.523V115.883C81.9477 114.073 83.6077 113.168 85.5677 113.168C86.7677 113.168 87.7527 113.548 88.5227 114.308C89.2327 114.988 89.5877 115.843 89.5877 116.873V118.298C89.5877 118.338 89.5827 118.413 89.5727 118.523C89.5727 118.623 89.5727 118.693 89.5727 118.733H90.0677V120.263H89.7677L89.2727 119.648H89.2277C88.8977 120.058 88.4777 120.263 87.9677 120.263H76.0727V118.733H78.7727V109.523H80.5877ZM87.7577 116.963C87.7477 116.203 87.4527 115.623 86.8727 115.223C86.4327 114.903 85.8977 114.743 85.2677 114.743C84.5277 114.743 83.8127 114.973 83.1227 115.433C82.1127 116.103 81.2677 117.203 80.5877 118.733H87.3827C87.6327 118.733 87.7577 118.608 87.7577 118.358V116.963ZM91.3994 110.063C91.6694 110.063 91.8994 110.158 92.0894 110.348C92.2794 110.538 92.3744 110.768 92.3744 111.038C92.3744 111.298 92.2794 111.523 92.0894 111.713C91.8994 111.903 91.6694 111.998 91.3994 111.998C91.1294 111.998 90.8994 111.903 90.7094 111.713C90.5194 111.523 90.4244 111.298 90.4244 111.038C90.4244 110.768 90.5194 110.538 90.7094 110.348C90.8994 110.158 91.1294 110.063 91.3994 110.063ZM93.6794 110.063C93.9494 110.063 94.1794 110.158 94.3694 110.348C94.5594 110.538 94.6544 110.768 94.6544 111.038C94.6544 111.298 94.5594 111.523 94.3694 111.713C94.1794 111.903 93.9494 111.998 93.6794 111.998C93.4194 111.998 93.1944 111.903 93.0044 111.713C92.8144 111.523 92.7194 111.298 92.7194 111.038C92.7194 110.768 92.8144 110.538 93.0044 110.348C93.1944 110.158 93.4194 110.063 93.6794 110.063ZM94.4594 113.363V118.613C94.4594 119.003 94.3294 119.363 94.0694 119.693C93.7394 120.073 93.3294 120.263 92.8394 120.263H89.9444V118.733H92.2544C92.3644 118.733 92.4594 118.693 92.5394 118.613C92.6094 118.543 92.6444 118.458 92.6444 118.358V113.363H94.4594Z" fill="white"/>
<line x1="0.365723" y1="94.763" x2="99.6343" y2="94.763" stroke="#FFC806"/>
</svg>
